<svg aria-hidden="true" style="position: absolute; width: 0; height: 0; overflow: hidden;" version="1.1" xmlns="http://www.w3.org/2000/svg" xmlns:xlink="http://www.w3.org/1999/xlink">
<defs>
<symbol id="email-black" viewBox="0 0 32 32">
<path d="M26.678 5.336h-21.342c-1.467 0-2.654 1.2-2.654 2.668l-0.013 16.007c0 1.467 1.2 2.668 2.668 2.668h21.342c1.467 0 2.668-1.201 2.668-2.668v-16.007c0-1.467-1.201-2.668-2.668-2.668zM26.144 11.005l-9.431 5.896c-0.427 0.267-0.987 0.267-1.414 0l-9.431-5.896c-0.333-0.213-0.534-0.574-0.534-0.96 0-0.894 0.974-1.427 1.734-0.96l8.937 5.589 8.937-5.589c0.76-0.467 1.734 0.067 1.734 0.96 0 0.387-0.2 0.747-0.534 0.96z"></path>
</symbol>
</defs>
</svg>
